<svg width="78" height="69" viewBox="0 0 78 69" fill="none" xmlns="http://www.w3.org/2000/svg">
<path d="M63.7102 22.4916C62.8875 22.2174 62.0648 21.9584 61.2422 21.7146C61.3793 21.151 61.5012 20.5873 61.623 20.0236C63.4969 10.9439 62.2629 3.64665 58.1039 1.23962C54.0973 -1.06077 47.5617 1.33103 40.95 7.08962C40.2949 7.65329 39.6551 8.24744 39.0457 8.84158C38.6344 8.44548 38.2078 8.04939 37.7812 7.66853C30.8496 1.51384 23.9027 -1.076 19.7438 1.34626C15.7523 3.66189 14.5641 10.5326 16.2398 19.1248C16.4074 19.9779 16.5902 20.8158 16.8035 21.6689C15.8285 21.9431 14.8687 22.2478 13.9699 22.5677C5.83476 25.3861 0 29.8345 0 34.4353C0 39.1885 6.21563 43.9568 14.6707 46.8513C15.3563 47.0799 16.0418 47.3084 16.7426 47.5064C16.5141 48.4205 16.316 49.3193 16.1332 50.2486C14.5336 58.7037 15.7828 65.4068 19.7742 67.7072C23.8875 70.0838 30.8039 67.6463 37.5375 61.7506C38.0707 61.2783 38.6039 60.7908 39.1371 60.2728C39.8074 60.9279 40.5082 61.5525 41.209 62.1619C47.7293 67.7681 54.1734 70.0381 58.1496 67.7377C62.2629 65.3611 63.6035 58.1552 61.8668 49.3802C61.7297 48.7099 61.5773 48.0244 61.4098 47.3236C61.8973 47.1865 62.3695 47.0342 62.8418 46.8818C71.632 43.972 78 39.2646 78 34.4353C78 29.8193 71.9977 25.3404 63.7102 22.4916ZM43.098 9.55759C48.7652 4.62165 54.0516 2.68689 56.4586 4.07322C59.0332 5.55095 60.0234 11.5228 58.4086 19.3685C58.302 19.8865 58.1953 20.3892 58.0582 20.892C54.6762 20.1302 51.2484 19.5818 47.8055 19.2771C45.825 16.4435 43.6617 13.7318 41.3156 11.1877C41.9098 10.624 42.4887 10.0908 43.098 9.55759ZM25.4719 42.342C26.2488 43.6674 27.041 44.9927 27.8789 46.2877C25.5023 46.0287 23.141 45.6478 20.8102 45.1451C21.4805 42.9513 22.3184 40.6814 23.2934 38.3658C23.9941 39.7064 24.7102 41.0318 25.4719 42.342ZM20.8559 24.015C23.0496 23.5275 25.3805 23.1314 27.8027 22.8267C26.9953 24.0912 26.2031 25.3861 25.4566 26.6963C24.7102 27.9912 23.9789 29.3166 23.2934 30.6572C22.3336 28.3873 21.5262 26.1631 20.8559 24.015ZM25.0301 34.5115C26.0355 32.4092 27.1324 30.3525 28.2902 28.3263C29.448 26.3002 30.6973 24.3349 32.0074 22.4002C34.2926 22.2326 36.6234 22.1412 39 22.1412C41.3766 22.1412 43.7227 22.2326 45.9926 22.4002C47.2875 24.3197 48.5215 26.2849 49.6945 28.2959C50.8676 30.3068 51.9645 32.3634 53.0004 34.4506C51.9797 36.5529 50.8828 38.6248 49.7098 40.6662C48.552 42.6924 47.318 44.6576 46.023 46.6076C43.7531 46.7752 41.3918 46.8513 39 46.8513C36.6082 46.8513 34.2926 46.7752 32.0531 46.6381C30.7277 44.7033 29.4785 42.7228 28.3055 40.6967C27.1324 38.6705 26.0508 36.6138 25.0301 34.5115ZM52.5434 42.3115C53.3203 40.9709 54.0516 39.615 54.7676 38.2439C55.7426 40.4529 56.5957 42.6924 57.3422 44.9927C54.9809 45.5259 52.5891 45.9373 50.182 46.2115C51.0047 44.9318 51.7816 43.6217 52.5434 42.3115ZM54.7371 30.6572C54.0211 29.3166 53.2898 27.976 52.5281 26.6658C51.7816 25.3709 51.0047 24.0912 50.1973 22.8267C52.65 23.1314 54.9961 23.5427 57.1898 24.0455C56.4891 26.3002 55.6664 28.4939 54.7371 30.6572ZM39.0305 13.5185C40.6301 15.2552 42.1383 17.0834 43.5398 18.9724C40.5234 18.8353 37.4918 18.8353 34.4754 18.9724C35.9684 17.0072 37.507 15.1791 39.0305 13.5185ZM21.3586 4.17986C23.918 2.68689 29.6004 4.8197 35.5875 10.1213C35.9684 10.4564 36.3492 10.822 36.7453 11.1877C34.384 13.7318 32.2055 16.4435 30.2098 19.2771C26.7668 19.5818 23.3543 20.115 19.9723 20.8615C19.7742 20.0845 19.6066 19.2924 19.4391 18.5002C18.007 11.1267 18.9516 5.56619 21.3586 4.17986ZM17.6262 44.3377C16.9863 44.1549 16.3617 43.9568 15.7371 43.7435C12.4922 42.7228 8.80547 41.108 6.13945 38.9904C4.60078 37.924 3.56484 36.2787 3.27539 34.4353C3.27539 31.6474 8.08945 28.0826 15.0363 25.6603C15.9047 25.3556 16.7883 25.0814 17.6719 24.8224C18.7078 28.1283 19.957 31.3732 21.4043 34.5115C19.9418 37.6955 18.6773 40.9861 17.6262 44.3377ZM35.3895 59.2674C32.8758 61.5677 29.966 63.3959 26.7973 64.6451C25.1062 65.4525 23.1563 65.5287 21.4195 64.8431C18.9973 63.4416 17.9918 58.0638 19.3629 50.8275C19.5305 49.9744 19.7133 49.1213 19.9266 48.2834C23.3391 49.0146 26.782 49.5174 30.2707 49.7763C32.2816 52.6252 34.4906 55.3521 36.852 57.9115C36.3645 58.3838 35.877 58.8408 35.3895 59.2674ZM39.1219 55.5654C37.568 53.8896 36.0141 52.031 34.5059 50.0353C35.9684 50.0963 37.4766 50.1267 39 50.1267C40.5691 50.1267 42.1078 50.0963 43.6312 50.0201C42.2297 51.9549 40.7215 53.7982 39.1219 55.5654ZM59.0332 60.1357C58.8961 61.9943 57.982 63.731 56.5195 64.9041C54.0973 66.3056 48.9328 64.4775 43.357 59.6939C42.7172 59.1455 42.0773 58.5513 41.4223 57.942C43.7531 55.3674 45.9012 52.6404 47.8512 49.7763C51.3398 49.4869 54.8133 48.9537 58.241 48.1767C58.3934 48.8013 58.5305 49.4259 58.6523 50.0353C59.3988 53.3259 59.5207 56.7537 59.0332 60.1357ZM61.8059 43.7588C61.3793 43.8959 60.9527 44.033 60.5109 44.1549C59.4445 40.8338 58.1344 37.5888 56.6262 34.4353C58.0887 31.3275 59.3227 28.1283 60.3586 24.8529C61.1508 25.0814 61.9125 25.3252 62.6438 25.5689C69.743 28.0064 74.7246 31.6322 74.7246 34.4049C74.7246 37.3908 69.4078 41.2451 61.8059 43.7588ZM39 41.4736C42.8543 41.4736 45.9773 38.3506 45.9773 34.4963C45.9773 30.642 42.8543 27.5189 39 27.5189C35.1457 27.5189 32.0227 30.642 32.0227 34.4963C32.0227 38.3506 35.1457 41.4736 39 41.4736Z" fill="#61DAFB"/>
</svg>
